<svg xmlns="http://www.w3.org/2000/svg" width="1088" height="687.962" viewBox="0 0 1088 687.962">
  <title>Easy to Use</title>
  <g id="Group_12" data-name="Group 12" transform="translate(-57 -56)">
    <g id="Group_11" data-name="Group 11" transform="translate(57 56)">
      <path id="Path_83" data-name="Path 83" d="M1017.81,560.461c-5.27,45.15-16.22,81.4-31.25,110.31-20,38.52-54.21,54.04-84.77,70.28a193.275,193.275,0,0,1-27.46,11.94c-55.61,19.3-117.85,14.18-166.74,3.99a657.282,657.282,0,0,0-104.09-13.16q-14.97-.675-29.97-.67c-15.42.02-293.07,5.29-360.67-131.57-16.69-33.76-28.13-75-32.24-125.27-11.63-142.12,52.29-235.46,134.74-296.47,155.97-115.41,369.76-110.57,523.43,7.88C941.15,276.621,1036.99,396.031,1017.81,560.461Z" transform="translate(-56 -106.019)" fill="#3f3d56"/>
      <path id="Path_84" data-name="Path 84" d="M986.56,670.771c-20,38.52-47.21,64.04-77.77,80.28a193.272,193.272,0,0,1-27.46,11.94c-55.61,19.3-117.85,14.18-166.74,3.99a657.3,657.3,0,0,0-104.09-13.16q-14.97-.675-29.97-.67-23.13.03-46.25,1.72c-100.17,7.36-253.82-6.43-321.42-143.29L382,283.981,444.95,445.6l20.09,51.59,55.37-75.98L549,381.981l130.2,149.27,36.8-81.27L970.78,657.9l14.21,11.59Z" transform="translate(-56 -106.019)" fill="#f2f2f2"/>
      <path id="Path_85" data-name="Path 85" d="M302,282.962l26-57,36,83-31-60Z" opacity="0.1"/>
      <path id="Path_86" data-name="Path 86" d="M610.5,753.821q-14.97-.675-29.97-.67L465.04,497.191Z" transform="translate(-56 -106.019)" opacity="0.1"/>
      <path id="Path_87" data-name="Path 87" d="M464.411,315.191,493,292.962l130,150-132-128Z" opacity="0.1"/>
      <path id="Path_88" data-name="Path 88" d="M908.79,751.051a193.265,193.265,0,0,1-27.46,11.94L679.2,531.251Z" transform="translate(-56 -106.019)" opacity="0.1"/>
      <circle id="Ellipse_11" data-name="Ellipse 11" cx="3" cy="3" r="3" transform="translate(479 98.962)" fill="#f2f2f2"/>
      <circle id="Ellipse_12" data-name="Ellipse 12" cx="3" cy="3" r="3" transform="translate(396 201.962)" fill="#f2f2f2"/>
      <circle id="Ellipse_13" data-name="Ellipse 13" cx="2" cy="2" r="2" transform="translate(600 220.962)" fill="#f2f2f2"/>
      <circle id="Ellipse_14" data-name="Ellipse 14" cx="2" cy="2" r="2" transform="translate(180 265.962)" fill="#f2f2f2"/>
      <circle id="Ellipse_15" data-name="Ellipse 15" cx="2" cy="2" r="2" transform="translate(612 96.962)" fill="#f2f2f2"/>
      <circle id="Ellipse_16" data-name="Ellipse 16" cx="2" cy="2" r="2" transform="translate(736 192.962)" fill="#f2f2f2"/>
      <circle id="Ellipse_17" data-name="Ellipse 17" cx="2" cy="2" r="2" transform="translate(858 344.962)" fill="#f2f2f2"/>
      <path id="Path_89" data-name="Path 89" d="M306,121.222h-2.76v-2.76h-1.48v2.76H299V122.7h2.76v2.759h1.48V122.7H306Z" fill="#f2f2f2"/>
      <path id="Path_90" data-name="Path 90" d="M848,424.222h-2.76v-2.76h-1.48v2.76H841V425.7h2.76v2.759h1.48V425.7H848Z" fill="#f2f2f2"/>
      <path id="Path_91" data-name="Path 91" d="M1144,719.981c0,16.569-243.557,74-544,74s-544-57.431-544-74,243.557,14,544,14S1144,703.413,1144,719.981Z" transform="translate(-56 -106.019)" fill="#3f3d56"/>
      <path id="Path_92" data-name="Path 92" d="M1144,719.981c0,16.569-243.557,74-544,74s-544-57.431-544-74,243.557,14,544,14S1144,703.413,1144,719.981Z" transform="translate(-56 -106.019)" opacity="0.1"/>
      <ellipse id="Ellipse_18" data-name="Ellipse 18" cx="544" cy="30" rx="544" ry="30" transform="translate(0 583.962)" fill="#3f3d56"/>
      <path id="Path_93" data-name="Path 93" d="M624,677.981c0,33.137-14.775,24-33,24s-33,9.137-33-24,33-96,33-96S624,644.844,624,677.981Z" transform="translate(-56 -106.019)" fill="#ff6584"/>
      <path id="Path_94" data-name="Path 94" d="M606,690.66c0,15.062-6.716,10.909-15,10.909s-15,4.153-15-10.909,15-43.636,15-43.636S606,675.6,606,690.66Z" transform="translate(-56 -106.019)" opacity="0.1"/>
      <rect id="Rectangle_97" data-name="Rectangle 97" width="92" height="18" rx="9" transform="translate(489 604.962)" fill="#2f2e41"/>
      <rect id="Rectangle_98" data-name="Rectangle 98" width="92" height="18" rx="9" transform="translate(489 586.962)" fill="#2f2e41"/>
      <path id="Path_95" data-name="Path 95" d="M193,596.547c0,55.343,34.719,100.126,77.626,100.126" transform="translate(-56 -106.019)" fill="#3f3d56"/>
      <path id="Path_96" data-name="Path 96" d="M270.626,696.673c0-55.965,38.745-101.251,86.626-101.251" transform="translate(-56 -106.019)" fill="#6c63ff"/>
      <path id="Path_97" data-name="Path 97" d="M221.125,601.564c0,52.57,22.14,95.109,49.5,95.109" transform="translate(-56 -106.019)" fill="#6c63ff"/>
      <path id="Path_98" data-name="Path 98" d="M270.626,696.673c0-71.511,44.783-129.377,100.126-129.377" transform="translate(-56 -106.019)" fill="#3f3d56"/>
      <path id="Path_99" data-name="Path 99" d="M254.3,697.379s11.009-.339,14.326-2.7,16.934-5.183,17.757-1.395,16.544,18.844,4.115,18.945-28.879-1.936-32.19-3.953S254.3,697.379,254.3,697.379Z" transform="translate(-56 -106.019)" fill="#a8a8a8"/>
      <path id="Path_100" data-name="Path 100" d="M290.716,710.909c-12.429.1-28.879-1.936-32.19-3.953-2.522-1.536-3.527-7.048-3.863-9.591l-.368.014s.7,8.879,4.009,10.9,19.761,4.053,32.19,3.953c3.588-.029,4.827-1.305,4.759-3.2C294.755,710.174,293.386,710.887,290.716,710.909Z" transform="translate(-56 -106.019)" opacity="0.2"/>
      <path id="Path_101" data-name="Path 101" d="M777.429,633.081c0,38.029,23.857,68.8,53.341,68.8" transform="translate(-56 -106.019)" fill="#3f3d56"/>
      <path id="Path_102" data-name="Path 102" d="M830.769,701.882c0-38.456,26.623-69.575,59.525-69.575" transform="translate(-56 -106.019)" fill="#6c63ff"/>
      <path id="Path_103" data-name="Path 103" d="M796.755,636.528c0,36.124,15.213,65.354,34.014,65.354" transform="translate(-56 -106.019)" fill="#6c63ff"/>
      <path id="Path_104" data-name="Path 104" d="M830.769,701.882c0-49.139,30.773-88.9,68.8-88.9" transform="translate(-56 -106.019)" fill="#3f3d56"/>
      <path id="Path_105" data-name="Path 105" d="M819.548,702.367s7.565-.233,9.844-1.856,11.636-3.562,12.2-.958,11.368,12.949,2.828,13.018-19.844-1.33-22.119-2.716S819.548,702.367,819.548,702.367Z" transform="translate(-56 -106.019)" fill="#a8a8a8"/>
      <path id="Path_106" data-name="Path 106" d="M844.574,711.664c-8.54.069-19.844-1.33-22.119-2.716-1.733-1.056-2.423-4.843-2.654-6.59l-.253.01s.479,6.1,2.755,7.487,13.579,2.785,22.119,2.716c2.465-.02,3.317-.9,3.27-2.2C847.349,711.159,846.409,711.649,844.574,711.664Z" transform="translate(-56 -106.019)" opacity="0.2"/>
      <path id="Path_107" data-name="Path 107" d="M949.813,724.718s11.36-1.729,14.5-4.591,16.89-7.488,18.217-3.667,19.494,17.447,6.633,19.107-30.153,1.609-33.835-.065S949.813,724.718,949.813,724.718Z" transform="translate(-56 -106.019)" fill="#a8a8a8"/>
      <path id="Path_108" data-name="Path 108" d="M989.228,734.173c-12.86,1.659-30.153,1.609-33.835-.065-2.8-1.275-4.535-6.858-5.2-9.45l-.379.061s1.833,9.109,5.516,10.783,20.975,1.725,33.835.065c3.712-.479,4.836-1.956,4.529-3.906C993.319,732.907,991.991,733.817,989.228,734.173Z" transform="translate(-56 -106.019)" opacity="0.2"/>
      <path id="Path_109" data-name="Path 109" d="M670.26,723.9s9.587-1.459,12.237-3.875,14.255-6.32,15.374-3.095,16.452,14.725,5.6,16.125-25.448,1.358-28.555-.055S670.26,723.9,670.26,723.9Z" transform="translate(-56 -106.019)" fill="#a8a8a8"/>
      <path id="Path_110" data-name="Path 110" d="M703.524,731.875c-10.853,1.4-25.448,1.358-28.555-.055-2.367-1.076-3.827-5.788-4.39-7.976l-.32.051s1.547,7.687,4.655,9.1,17.7,1.456,28.555.055c3.133-.4,4.081-1.651,3.822-3.3C706.977,730.807,705.856,731.575,703.524,731.875Z" transform="translate(-56 -106.019)" opacity="0.2"/>
      <path id="Path_111" data-name="Path 111" d="M178.389,719.109s7.463-1.136,9.527-3.016,11.1-4.92,11.969-2.409,12.808,11.463,4.358,12.553-19.811,1.057-22.23-.043S178.389,719.109,178.389,719.109Z" transform="translate(-56 -106.019)" fill="#a8a8a8"/>
      <path id="Path_112" data-name="Path 112" d="M204.285,725.321c-8.449,1.09-19.811,1.057-22.23-.043-1.842-.838-2.979-4.506-3.417-6.209l-.249.04s1.2,5.984,3.624,7.085,13.781,1.133,22.23.043c2.439-.315,3.177-1.285,2.976-2.566C206.973,724.489,206.1,725.087,204.285,725.321Z" transform="translate(-56 -106.019)" opacity="0.2"/>
      <path id="Path_113" data-name="Path 113" d="M439.7,707.337c0,30.22-42.124,20.873-93.7,20.873s-93.074,9.347-93.074-20.873,42.118-36.793,93.694-36.793S439.7,677.117,439.7,707.337Z" transform="translate(-56 -106.019)" opacity="0.1"/>
      <path id="Path_114" data-name="Path 114" d="M439.7,699.9c0,30.22-42.124,20.873-93.7,20.873s-93.074,9.347-93.074-20.873S295.04,663.1,346.616,663.1,439.7,669.676,439.7,699.9Z" transform="translate(-56 -106.019)" fill="#3f3d56"/>
    </g>
    <g id="docusaurus_keytar" transform="translate(312.271 493.733)">
      <g id="Group_8" data-name="Group 8" transform="matrix(0.966, -0.259, 0.259, 0.966, 109.327, 91.085)">
        <rect id="Rectangle_3" data-name="Rectangle 3" width="92.361" height="36.462" rx="2" transform="translate(0 0)" fill="#d8d8d8"/>
        <g id="Group_2" data-name="Group 2" transform="translate(1.531 23.03)">
          <rect id="Rectangle_4" data-name="Rectangle 4" width="5.336" height="5.336" rx="1" transform="translate(16.797 0)" fill="#4a4a4a"/>
          <rect id="Rectangle_5" data-name="Rectangle 5" width="5.336" height="5.336" rx="1" transform="translate(23.12 0)" fill="#4a4a4a"/>
          <rect id="Rectangle_6" data-name="Rectangle 6" width="5.336" height="5.336" rx="1" transform="translate(29.444 0)" fill="#4a4a4a"/>
          <rect id="Rectangle_7" data-name="Rectangle 7" width="5.336" height="5.336" rx="1" transform="translate(35.768 0)" fill="#4a4a4a"/>
          <rect id="Rectangle_8" data-name="Rectangle 8" width="5.336" height="5.336" rx="1" transform="translate(42.091 0)" fill="#4a4a4a"/>
          <rect id="Rectangle_9" data-name="Rectangle 9" width="5.336" height="5.336" rx="1" transform="translate(48.415 0)" fill="#4a4a4a"/>
          <rect id="Rectangle_10" data-name="Rectangle 10" width="5.336" height="5.336" rx="1" transform="translate(54.739 0)" fill="#4a4a4a"/>
          <rect id="Rectangle_11" data-name="Rectangle 11" width="5.336" height="5.336" rx="1" transform="translate(61.063 0)" fill="#4a4a4a"/>
          <rect id="Rectangle_12" data-name="Rectangle 12" width="5.336" height="5.336" rx="1" transform="translate(67.386 0)" fill="#4a4a4a"/>
          <path id="Path_51" data-name="Path 51" d="M1.093,0H14.518a1.093,1.093,0,0,1,1.093,1.093V4.243a1.093,1.093,0,0,1-1.093,1.093H1.093A1.093,1.093,0,0,1,0,4.243V1.093A1.093,1.093,0,0,1,1.093,0ZM75,0H88.426a1.093,1.093,0,0,1,1.093,1.093V4.243a1.093,1.093,0,0,1-1.093,1.093H75a1.093,1.093,0,0,1-1.093-1.093V1.093A1.093,1.093,0,0,1,75,0Z" transform="translate(0 0)" fill="#4a4a4a" fill-rule="evenodd"/>
        </g>
        <g id="Group_3" data-name="Group 3" transform="translate(1.531 10.261)">
          <path id="Path_52" data-name="Path 52" d="M1.093,0H6.218A1.093,1.093,0,0,1,7.31,1.093V4.242A1.093,1.093,0,0,1,6.218,5.335H1.093A1.093,1.093,0,0,1,0,4.242V1.093A1.093,1.093,0,0,1,1.093,0Z" transform="translate(0 0)" fill="#4a4a4a" fill-rule="evenodd"/>
          <rect id="Rectangle_13" data-name="Rectangle 13" width="5.336" height="5.336" rx="1" transform="translate(8.299 0)" fill="#4a4a4a"/>
          <rect id="Rectangle_14" data-name="Rectangle 14" width="5.336" height="5.336" rx="1" transform="translate(14.623 0)" fill="#4a4a4a"/>
          <rect id="Rectangle_15" data-name="Rectangle 15" width="5.336" height="5.336" rx="1" transform="translate(20.947 0)" fill="#4a4a4a"/>
          <rect id="Rectangle_16" data-name="Rectangle 16" width="5.336" height="5.336" rx="1" transform="translate(27.271 0)" fill="#4a4a4a"/>
          <rect id="Rectangle_17" data-name="Rectangle 17" width="5.336" height="5.336" rx="1" transform="translate(33.594 0)" fill="#4a4a4a"/>
          <rect id="Rectangle_18" data-name="Rectangle 18" width="5.336" height="5.336" rx="1" transform="translate(39.918 0)" fill="#4a4a4a"/>
          <rect id="Rectangle_19" data-name="Rectangle 19" width="5.336" height="5.336" rx="1" transform="translate(46.242 0)" fill="#4a4a4a"/>
          <rect id="Rectangle_20" data-name="Rectangle 20" width="5.336" height="5.336" rx="1" transform="translate(52.565 0)" fill="#4a4a4a"/>
          <rect id="Rectangle_21" data-name="Rectangle 21" width="5.336" height="5.336" rx="1" transform="translate(58.888 0)" fill="#4a4a4a"/>
          <rect id="Rectangle_22" data-name="Rectangle 22" width="5.336" height="5.336" rx="1" transform="translate(65.212 0)" fill="#4a4a4a"/>
          <rect id="Rectangle_23" data-name="Rectangle 23" width="5.336" height="5.336" rx="1" transform="translate(71.536 0)" fill="#4a4a4a"/>
          <rect id="Rectangle_24" data-name="Rectangle 24" width="5.336" height="5.336" rx="1" transform="translate(77.859 0)" fill="#4a4a4a"/>
          <rect id="Rectangle_25" data-name="Rectangle 25" width="5.336" height="5.336" rx="1" transform="translate(84.183 0)" fill="#4a4a4a"/>
        </g>
        <g id="Group_4" data-name="Group 4" transform="translate(91.05 9.546) rotate(180)">
          <path id="Path_53" data-name="Path 53" d="M1.093,0H6.219A1.093,1.093,0,0,1,7.312,1.093v3.15A1.093,1.093,0,0,1,6.219,5.336H1.093A1.093,1.093,0,0,1,0,4.243V1.093A1.093,1.093,0,0,1,1.093,0Z" transform="translate(0 0)" fill="#4a4a4a" fill-rule="evenodd"/>
          <rect id="Rectangle_26" data-name="Rectangle 26" width="5.336" height="5.336" rx="1" transform="translate(8.299 0)" fill="#4a4a4a"/>
          <rect id="Rectangle_27" data-name="Rectangle 27" width="5.336" height="5.336" rx="1" transform="translate(14.623 0)" fill="#4a4a4a"/>
          <rect id="Rectangle_28" data-name="Rectangle 28" width="5.336" height="5.336" rx="1" transform="translate(20.947 0)" fill="#4a4a4a"/>
          <rect id="Rectangle_29" data-name="Rectangle 29" width="5.336" height="5.336" rx="1" transform="translate(27.271 0)" fill="#4a4a4a"/>
          <rect id="Rectangle_30" data-name="Rectangle 30" width="5.336" height="5.336" rx="1" transform="translate(33.594 0)" fill="#4a4a4a"/>
          <rect id="Rectangle_31" data-name="Rectangle 31" width="5.336" height="5.336" rx="1" transform="translate(39.918 0)" fill="#4a4a4a"/>
          <rect id="Rectangle_32" data-name="Rectangle 32" width="5.336" height="5.336" rx="1" transform="translate(46.242 0)" fill="#4a4a4a"/>
          <rect id="Rectangle_33" data-name="Rectangle 33" width="5.336" height="5.336" rx="1" transform="translate(52.565 0)" fill="#4a4a4a"/>
          <rect id="Rectangle_34" data-name="Rectangle 34" width="5.336" height="5.336" rx="1" transform="translate(58.889 0)" fill="#4a4a4a"/>
          <rect id="Rectangle_35" data-name="Rectangle 35" width="5.336" height="5.336" rx="1" transform="translate(65.213 0)" fill="#4a4a4a"/>
          <rect id="Rectangle_36" data-name="Rectangle 36" width="5.336" height="5.336" rx="1" transform="translate(71.537 0)" fill="#4a4a4a"/>
          <rect id="Rectangle_37" data-name="Rectangle 37" width="5.336" height="5.336" rx="1" transform="translate(77.86 0)" fill="#4a4a4a"/>
          <rect id="Rectangle_38" data-name="Rectangle 38" width="5.336" height="5.336" rx="1" transform="translate(84.183 0)" fill="#4a4a4a"/>
          <rect id="Rectangle_39" data-name="Rectangle 39" width="5.336" height="5.336" rx="1" transform="translate(8.299 0)" fill="#4a4a4a"/>
          <rect id="Rectangle_40" data-name="Rectangle 40" width="5.336" height="5.336" rx="1" transform="translate(14.623 0)" fill="#4a4a4a"/>
          <rect id="Rectangle_41" data-name="Rectangle 41" width="5.336" height="5.336" rx="1" transform="translate(20.947 0)" fill="#4a4a4a"/>
          <rect id="Rectangle_42" data-name="Rectangle 42" width="5.336" height="5.336" rx="1" transform="translate(27.271 0)" fill="#4a4a4a"/>
          <rect id="Rectangle_43" data-name="Rectangle 43" width="5.336" height="5.336" rx="1" transform="translate(33.594 0)" fill="#4a4a4a"/>
          <rect id="Rectangle_44" data-name="Rectangle 44" width="5.336" height="5.336" rx="1" transform="translate(39.918 0)" fill="#4a4a4a"/>
          <rect id="Rectangle_45" data-name="Rectangle 45" width="5.336" height="5.336" rx="1" transform="translate(46.242 0)" fill="#4a4a4a"/>
          <rect id="Rectangle_46" data-name="Rectangle 46" width="5.336" height="5.336" rx="1" transform="translate(52.565 0)" fill="#4a4a4a"/>
          <rect id="Rectangle_47" data-name="Rectangle 47" width="5.336" height="5.336" rx="1" transform="translate(58.889 0)" fill="#4a4a4a"/>
          <rect id="Rectangle_48" data-name="Rectangle 48" width="5.336" height="5.336" rx="1" transform="translate(65.213 0)" fill="#4a4a4a"/>
          <rect id="Rectangle_49" data-name="Rectangle 49" width="5.336" height="5.336" rx="1" transform="translate(71.537 0)" fill="#4a4a4a"/>
          <rect id="Rectangle_50" data-name="Rectangle 50" width="5.336" height="5.336" rx="1" transform="translate(77.86 0)" fill="#4a4a4a"/>
          <rect id="Rectangle_51" data-name="Rectangle 51" width="5.336" height="5.336" rx="1" transform="translate(84.183 0)" fill="#4a4a4a"/>
        </g>
        <g id="Group_6" data-name="Group 6" transform="translate(1.531 16.584)">
          <path id="Path_54" data-name="Path 54" d="M1.093,0h7.3A1.093,1.093,0,0,1,9.485,1.093v3.15A1.093,1.093,0,0,1,8.392,5.336h-7.3A1.093,1.093,0,0,1,0,4.243V1.094A1.093,1.093,0,0,1,1.093,0Z" transform="translate(0 0)" fill="#4a4a4a" fill-rule="evenodd"/>
          <g id="Group_5" data-name="Group 5" transform="translate(10.671 0)">
            <rect id="Rectangle_52" data-name="Rectangle 52" width="5.336" height="5.336" rx="1" fill="#4a4a4a"/>
            <rect id="Rectangle_53" data-name="Rectangle 53" width="5.336" height="5.336" rx="1" transform="translate(6.324 0)" fill="#4a4a4a"/>
            <rect id="Rectangle_54" data-name="Rectangle 54" width="5.336" height="5.336" rx="1" transform="translate(12.647 0)" fill="#4a4a4a"/>
            <rect id="Rectangle_55" data-name="Rectangle 55" width="5.336" height="5.336" rx="1" transform="translate(18.971 0)" fill="#4a4a4a"/>
            <rect id="Rectangle_56" data-name="Rectangle 56" width="5.336" height="5.336" rx="1" transform="translate(25.295 0)" fill="#4a4a4a"/>
            <rect id="Rectangle_57" data-name="Rectangle 57" width="5.336" height="5.336" rx="1" transform="translate(31.619 0)" fill="#4a4a4a"/>
            <rect id="Rectangle_58" data-name="Rectangle 58" width="5.336" height="5.336" rx="1" transform="translate(37.942 0)" fill="#4a4a4a"/>
            <rect id="Rectangle_59" data-name="Rectangle 59" width="5.336" height="5.336" rx="1" transform="translate(44.265 0)" fill="#4a4a4a"/>
            <rect id="Rectangle_60" data-name="Rectangle 60" width="5.336" height="5.336" rx="1" transform="translate(50.589 0)" fill="#4a4a4a"/>
            <rect id="Rectangle_61" data-name="Rectangle 61" width="5.336" height="5.336" rx="1" transform="translate(56.912 0)" fill="#4a4a4a"/>
            <rect id="Rectangle_62" data-name="Rectangle 62" width="5.336" height="5.336" rx="1" transform="translate(63.236 0)" fill="#4a4a4a"/>
          </g>
          <path id="Path_55" data-name="Path 55" d="M1.094,0H8A1.093,1.093,0,0,1,9.091,1.093v3.15A1.093,1.093,0,0,1,8,5.336H1.093A1.093,1.093,0,0,1,0,4.243V1.094A1.093,1.093,0,0,1,1.093,0Z" transform="translate(80.428 0)" fill="#4a4a4a" fill-rule="evenodd"/>
        </g>
        <g id="Group_7" data-name="Group 7" transform="translate(1.531 29.627)">
          <rect id="Rectangle_63" data-name="Rectangle 63" width="5.336" height="5.336" rx="1" transform="translate(0 0)" fill="#4a4a4a"/>
          <rect id="Rectangle_64" data-name="Rectangle 64" width="5.336" height="5.336" rx="1" transform="translate(6.324 0)" fill="#4a4a4a"/>
          <rect id="Rectangle_65" data-name="Rectangle 65" width="5.336" height="5.336" rx="1" transform="translate(12.647 0)" fill="#4a4a4a"/>
          <rect id="Rectangle_66" data-name="Rectangle 66" width="5.336" height="5.336" rx="1" transform="translate(18.971 0)" fill="#4a4a4a"/>
          <path id="Path_56" data-name="Path 56" d="M1.093,0H31.515a1.093,1.093,0,0,1,1.093,1.093V4.244a1.093,1.093,0,0,1-1.093,1.093H1.093A1.093,1.093,0,0,1,0,4.244V1.093A1.093,1.093,0,0,1,1.093,0ZM34.687,0h3.942a1.093,1.093,0,0,1,1.093,1.093V4.244a1.093,1.093,0,0,1-1.093,1.093H34.687a1.093,1.093,0,0,1-1.093-1.093V1.093A1.093,1.093,0,0,1,34.687,0Z" transform="translate(25.294 0)" fill="#4a4a4a" fill-rule="evenodd"/>
          <rect id="Rectangle_67" data-name="Rectangle 67" width="5.336" height="5.336" rx="1" transform="translate(66.003 0)" fill="#4a4a4a"/>
          <rect id="Rectangle_68" data-name="Rectangle 68" width="5.336" height="5.336" rx="1" transform="translate(72.327 0)" fill="#4a4a4a"/>
          <rect id="Rectangle_69" data-name="Rectangle 69" width="5.336" height="5.336" rx="1" transform="translate(84.183 0)" fill="#4a4a4a"/>
          <path id="Path_57" data-name="Path 57" d="M5.336,0V1.18A1.093,1.093,0,0,1,4.243,2.273H1.093A1.093,1.093,0,0,1,0,1.18V0Z" transform="translate(83.59 2.273) rotate(180)" fill="#4a4a4a"/>
          <path id="Path_58" data-name="Path 58" d="M5.336,0V1.18A1.093,1.093,0,0,1,4.243,2.273H1.093A1.093,1.093,0,0,1,0,1.18V0Z" transform="translate(78.255 3.063)" fill="#4a4a4a"/>
        </g>
        <rect id="Rectangle_70" data-name="Rectangle 70" width="88.927" height="2.371" rx="1.085" transform="translate(1.925 1.17)" fill="#4a4a4a"/>
        <rect id="Rectangle_71" data-name="Rectangle 71" width="4.986" height="1.581" rx="0.723" transform="translate(4.1 1.566)" fill="#d8d8d8" opacity="0.136"/>
        <rect id="Rectangle_72" data-name="Rectangle 72" width="4.986" height="1.581" rx="0.723" transform="translate(10.923 1.566)" fill="#d8d8d8" opacity="0.136"/>
        <rect id="Rectangle_73" data-name="Rectangle 73" width="4.986" height="1.581" rx="0.723" transform="translate(16.173 1.566)" fill="#d8d8d8" opacity="0.136"/>
        <rect id="Rectangle_74" data-name="Rectangle 74" width="4.986" height="1.581" rx="0.723" transform="translate(21.421 1.566)" fill="#d8d8d8" opacity="0.136"/>
        <rect id="Rectangle_75" data-name="Rectangle 75" width="4.986" height="1.581" rx="0.723" transform="translate(26.671 1.566)" fill="#d8d8d8" opacity="0.136"/>
        <rect id="Rectangle_76" data-name="Rectangle 76" width="4.986" height="1.581" rx="0.723" transform="translate(33.232 1.566)" fill="#d8d8d8" opacity="0.136"/>
        <rect id="Rectangle_77" data-name="Rectangle 77" width="4.986" height="1.581" rx="0.723" transform="translate(38.48 1.566)" fill="#d8d8d8" opacity="0.136"/>
        <rect id="Rectangle_78" data-name="Rectangle 78" width="4.986" height="1.581" rx="0.723" transform="translate(43.73 1.566)" fill="#d8d8d8" opacity="0.136"/>
        <rect id="Rectangle_79" data-name="Rectangle 79" width="4.986" height="1.581" rx="0.723" transform="translate(48.978 1.566)" fill="#d8d8d8" opacity="0.136"/>
        <rect id="Rectangle_80" data-name="Rectangle 80" width="4.986" height="1.581" rx="0.723" transform="translate(55.54 1.566)" fill="#d8d8d8" opacity="0.136"/>
        <rect id="Rectangle_81" data-name="Rectangle 81" width="4.986" height="1.581" rx="0.723" transform="translate(60.788 1.566)" fill="#d8d8d8" opacity="0.136"/>
        <rect id="Rectangle_82" data-name="Rectangle 82" width="4.986" height="1.581" rx="0.723" transform="translate(66.038 1.566)" fill="#d8d8d8" opacity="0.136"/>
        <rect id="Rectangle_83" data-name="Rectangle 83" width="4.986" height="1.581" rx="0.723" transform="translate(72.599 1.566)" fill="#d8d8d8" opacity="0.136"/>
        <rect id="Rectangle_84" data-name="Rectangle 84" width="4.986" height="1.581" rx="0.723" transform="translate(77.847 1.566)" fill="#d8d8d8" opacity="0.136"/>
        <rect id="Rectangle_85" data-name="Rectangle 85" width="4.986" height="1.581" rx="0.723" transform="translate(83.097 1.566)" fill="#d8d8d8" opacity="0.136"/>
      </g>
    </g>
  </g>
</svg>
